<svg xmlns:dc="http://purl.org/dc/elements/1.1/" xmlns:cc="http://creativecommons.org/ns#" xmlns:rdf="http://www.w3.org/1999/02/22-rdf-syntax-ns#" xmlns:svg="http://www.w3.org/2000/svg" xmlns="http://www.w3.org/2000/svg" viewBox="0 0 762 762" fill="none"><metadata><rdf:RDF><cc:Work><dc:format>image/svg+xml</dc:format><dc:type rdf:resource="http://purl.org/dc/dcmitype/StillImage"/><dc:title>Adventurer</dc:title><dc:creator><cc:Agent><dc:title>Lisa Wischofsky</dc:title></cc:Agent></dc:creator><dc:source>https://www.instagram.com/lischis_adventures/</dc:source><cc:license rdf:resource="https://creativecommons.org/licenses/by/4.0/"/></cc:Work><cc:License rdf:about="https://creativecommons.org/licenses/by/4.0/"><cc:permits rdf:resource="https://creativecommons.org/ns#Reproduction"/><cc:permits rdf:resource="https://creativecommons.org/ns#Distribution"/><cc:permits rdf:resource="https://creativecommons.org/ns#DerivativeWorks"/><cc:requires rdf:resource="https://creativecommons.org/ns#Notice"/><cc:requires rdf:resource="https://creativecommons.org/ns#Attribution"/></cc:License></rdf:RDF></metadata><mask id="avatarsRadiusMask"><rect width="762" height="762" rx="0" ry="0" x="0" y="0" fill="#fff"/></mask><g mask="url(#avatarsRadiusMask)"><path d="M396.01 164.85c37.82 4.9 74.21 19.64 104.8 42.39 6.15 4.84 12.48 9.33 18.02 14.92 23.77 21.98 42.73 49.02 55.13 78.95 9.35 22.31 14.72 46.04 16.64 70.14 6.62.81 13.05 2.14 19.12 5 15.54 6.93 27.08 20.94 31.78 37.21 2.63 9.56 3.56 19.75 1.72 29.55-2.96 18.76-13.72 36.13-29.37 46.92-10.94 7.65-24.49 12.03-37.86 11.68-5.13-.05-10.04-1.6-15.13-1.79-1.85 2.17-3.23 4.84-4.76 7.25-18.66 29.62-44.57 54.51-74.64 72.4-28.1 16.73-59.9 27.16-92.46 30.32-11.08.7-21.87 2.05-32.98.74-51.69-2.3-102.07-23.44-140.15-58.43-29.03-26.55-50.84-60.83-62.54-98.39-7.09-22.85-10.62-46.78-10.07-70.71.52-40.34 12.53-80.58 33.94-114.76 19.1-30.81 45.91-56.58 77.2-74.83 29.63-17.28 63.35-27.68 97.59-29.87 14.66-1.47 29.44-.37 44.02 1.31Z" fill="#000"/><path d="M363 169.06c48.47-1.39 97.32 14.7 135.81 44.12 6.55 4.06 11.72 9.49 17.36 14.64 24.33 22.63 43.2 50.95 54.93 82.02 7.43 19.61 11.86 40.2 13.56 61.09-8.89.74-17.34 2.34-25.38 6.38-2.19 1.03-1.89 4.95.68 5.23 2.35.23 4.98-1.51 7.24-2.2 14.62-5.37 31.32-4.35 44.78 3.68 11.69 6.78 20.09 18.16 23.89 31.06 2.6 8.25 2.68 17.41 1.76 25.95-2.5 17.35-12.35 33.73-26.73 43.81-15.71 11.33-37.17 14.64-54.93 6.2-3.17-1.43-5.94-3.58-9.08-5.05-2.95-1.09-4.88 2.79-2.7 4.75 3.17 2.76 7.34 4.52 11 6.56-20.14 34.15-49.45 62.7-84.41 81.47-30.2 16.31-64.44 25.53-98.78 26.15-27.63.72-55.33-4.04-81.21-13.72-30.32-11.24-57.84-29.43-80.37-52.6-22.67-23.37-39.92-51.88-50.2-82.77-14.96-44.64-14.91-94.01.27-138.59 11.05-33.06 30.28-63.21 55.37-87.39 29.67-28.73 67.65-48.54 108.13-56.67 12.8-2.52 25.94-4.24 39.01-4.12Z" fill="rgba(242, 211, 177, 1)"/><path d="M605.03 404.4c2.63-.1 3.44 3.8 1.36 4.98-3.69 1.83-7.82 2.77-11.64 4.35-5.82 2.04-11.28 4.76-16.68 7.72 4.29 2.34 8.86 4.74 12.71 7.76 2.58 2.09 4.85 4.35 5.33 7.8-.26 3.59-2.73 6.55-5.45 8.69-5.86 4.66-13.92 7.18-20.79 10.26-1.75.62-4.43 1.99-5.59-.26-1.02-1.74-.06-3.11 1.57-3.87 6.65-3.3 14.86-5.62 20.79-10.16 1.37-1.14 3.39-2.74 3.61-4.62-4.07-5.63-12.42-8.59-18.23-12.09-2.34-1.72-2.29-4.24-.16-6.13 7.27-5.64 16.98-9.26 25.57-12.38 2.42-.83 5.03-1.95 7.6-2.05Z" fill="#000"/><g transform="translate(-161 -83)"><path d="M559.03 444.54c11.35-.74 22.51-.03 33.16 4.25 11.38 4.42 21.31 12.41 26.22 23.8 1.35 3.29 3.11 7.56 2.23 11.12-3.07 3.24-8.56 1.01-12.56 1.02-12.66-.59-25.44-.46-38.07.6-13.92 1.01-28.4 1.71-41.93 5.23-8.57 1.76-17 4.47-25.23 7.41-3.69 1.26-6.8 2.95-10.86 2.21 1.31-16.83 12.96-31.41 26.26-40.95 12.13-8.21 26.19-13.34 40.78-14.69Z" fill="#000"/><path d="M572.98 450.16c11.61 1.09 23.19 4.98 31.87 13 4.94 4.52 8.31 10.31 10.19 16.72-16.72-2.17-34.3-.87-51.09.1-7.64.88-15.37.98-22.94 2.25 1.15-9.27 2.15-18.43 1.05-27.77 10.01-3.52 20.28-5.48 30.92-4.3Z" fill="#fff"/><path d="M369.22 468.68c17.1-2.83 35.63-.23 50.88 8.19 8.69 4.83 16.86 12.07 20.61 21.48.73 2.06 1.58 4.59-.73 5.96-2.65.08-5.37-.59-7.99-1.01-9.41-1.81-19.4-2.11-28.99-2.57-10.7-.45-21.3.47-31.99.59-12.49.84-24.77 2.93-37.1 5-2.45.58-3.14-2.39-3.07-4.24.15-12.37 9.08-22.32 19.76-27.45 6-2.54 12.23-4.67 18.62-5.95Z" fill="#000"/><path d="M516.85 467.34c-.57 6.96-.53 13.45.13 20.4-6.16 1.8-12.2 3.88-18.22 6.1 3.2-10.63 9.88-19.24 18.09-26.5ZM374.58 473.35c9.89-.51 19.68.03 29.2 2.93 12.4 3.71 23.79 10.16 30.58 21.56-20.19-3.58-39.98-2.61-60.31-2.46.88-7.35.67-14.65.53-22.03ZM350.49 480.58c-.28 5.86-.25 11.64.01 17.5-4.71.28-9.41.74-14.04 1.68 1.62-7 5.15-12.07 10.65-16.56 1.12-.89 2.25-1.76 3.38-2.62Z" fill="#fff"/></g><g transform="translate(-161 -83)"><g fill="#000"><path d="M397.06 373.14c6.81.19 14.18 2.86 17.93 8.88 1.05 1.45.63 3.68.72 5.4-6.29.15-12.49.33-18.64 1.83-15.06 3.48-29.35 10.86-41.64 20.15-8.37 6.38-16.34 14.1-21.95 23.07-1.43 2.22-2.41 5.03-4.29 6.89-1.24.26-2.57.28-3.83.35-.05-1.77-.23-3.46.21-5.19 5.72-20.86 19.83-39.34 38.12-50.81 9.83-5.84 21.73-11.05 33.37-10.57ZM578.52 411.66c10.41 1.67 21.2 3.85 30.01 9.97l-.21 4.78c-4.07 1.59-7.29-.15-11.31-.78-6.82-1.2-13.91-1.25-20.83-1.11-29.25 1.32-58.23 9.89-83.97 23.74-1.45.63-2.92 1.06-4.42 1.54-2.58-5.36-3.61-10.91-.13-16.17 5.13-7.67 15.2-12.39 23.63-15.44 21.34-7.36 44.88-9 67.23-6.53Z"/></g></g><g transform="translate(-161 -83)"><path d="M462.23 552.76c5.89 1.34 11.98 4.52 15.69 9.38 1.25 2.25.03 5.01-2.77 4.63-2.26-1.24-3.96-3.38-6.13-4.8-4.31-2.87-9.86-4.48-15.03-3.68-2.57.46-5.36 1.6-6.83 3.87-1.53 2.09-1.29 4.76-.4 7.05 1.72 4.44 6 7.87 10.25 9.73 2.3 1.06 5.25 1.28 7.29 2.75 1.69 1.8.58 4.36-1.73 4.78-4.61 1.03-8.66 2.66-11.62 6.51-5.51 6.68-4.73 16.7 1.35 22.74 6.13 6.67 17.21 7.51 24.26 1.85 2.43-1.87 3.59-4.35 5.54-6.58 2.97-1.44 5.07 1.04 3.97 3.91-4.62 9.77-16.97 14.49-27.13 11.4-8.93-2.41-15.86-10.12-17.26-19.27-1.55-9.44 3.19-18.64 11.31-23.48-5.73-2.95-10.81-7.86-12.37-14.28-1.54-5.3.79-11.27 5.45-14.2 4.69-3.25 10.76-3.16 16.16-2.31Z" fill="#000"/></g><g transform="translate(-161 -83)"/><g transform="translate(-161 -83)"><path d="M558.951 229.03c42.79 5.47 86.55 16.98 124.87 37.14 25.87 13.7 50.73 32.25 67.08 56.9 4.03 5.76 5.84 12.02 8.5 18.42 4.82 11.93 7.66 24.08 10.94 36.48 8.15 31 18.05 61.58 29.08 91.67 12.75 34.88 27.1 69.13 43.48 102.47 1.38 2.89 3.07 5.61 4.58 8.44.79 1.29.95 2.64-.07 3.87-4.2 5.3-10.21 9.55-15.88 13.17-12.36 7.78-26.12 13.86-39.74 19.06-17.53 6.75-35.51 12.03-53.78 16.4-19.33 4.41-39.19 8.1-59.01 9.27-3.88.27-7.08 1.24-10.63-.99.44-2.51.4-4.67 2.51-6.43 5.57-5.07 11.11-10.17 16.19-15.75-20.68 10.84-42.26 20.23-64.53 27.32-2.9.78-6.51 2.34-9.5 1.63-1.91-.9-2.18-2.76-1.41-4.57 8.68-19.2 12.22-41.76 15.07-62.52 2.75-23.29 4.35-46.56 4.27-70.01.17-18.2-.06-36.52-1.73-54.65-37.54-3.85-74.6-14.97-108.79-30.81-24.29-11.44-48.04-25.91-68.03-43.92-8.73-7.82-16.61-16.49-23.4-26.05-1.18 9.47-.96 18.92-.91 28.43.04 3.6.31 7.14 1.33 10.62.3 1.71 1.19 3.24-.05 4.78-1.13 1.71-3.72 1.12-5.36.59-13.04-4.41-23.45-13.85-30.45-25.57-7.23-12.18-10.64-26.3-10.09-40.44-12.51 9.15-22.51 20.24-32.34 32.12-12.23 14.92-23.97 31.11-32.67 48.37-1.41 2.75-2.68 5.53-3.37 8.56-10.56 47.51-4.58 98.34 16.78 142.08 16.83 34.93 43.23 65.08 75.57 86.46 1.23.82 2.49 1.63 3.58 2.62.7 1.71.91 3.01-.43 4.47-2.39 1.45-5.35 2.07-7.99 2.95-21.93 6.94-44.06 13.5-65.68 21.35-21.93 7.99-43.23 17.6-65.19 25.49-1.48-.94-2.4-1.89-3.38-3.35 3.59-7.74 9.35-14.05 12.51-22.1 9.79-24.32 9.99-51.18 9.35-77-.01-14.72-1.27-29.31-1.91-44-1.4-21.67-2.62-43.28-3.34-64.99-.54-27.33-2.12-55.73-.08-83.02 1.38-22.02 5.38-44.24 13.1-64.95 2.93-8.14 7.28-15.5 13.27-21.76 4.93-5.04 9.88-10.17 15.26-14.73 5.27-4.53 10.94-8.33 16.41-12.67 15.83-12.45 31.02-25.71 47-37.98 15.54-12.15 32.73-23.31 50.98-30.93 6.82-2.61 13.75-4.55 21.11-4.62 32.31-2.3 64.79-1.35 96.92 2.68Z" fill="#000"/><path d="M512.029 231.18c48.03 1.54 97.38 9.85 142.16 27.69 20.17 8.07 40 18.43 57.36 31.56 13.45 10.21 26.05 22.58 35.21 36.82 2.92 4.41 5.03 9.23 6.66 14.24 2.52 7.89 5.94 15.35 7.68 23.5 8.47 35.02 19.38 69.33 31.6 103.22 13.41 36.54 28.2 72.75 45.58 107.6 1.05 2.22 2.24 4.32 3.6 6.37-6.44 6.13-13.67 11.04-21.5 15.2-21.42 11.5-45.25 19.7-68.65 26.14-24.31 6.64-49.09 11.35-74.24 13.22 7.93-7.18 15.43-14.78 22.24-23.02 1.37-1.68 2.86-3.16 4.75-4.25 6.22-3.65 12.3-7.57 18.14-11.81 1.4-.95 2.15-2.33 3.08-3.71-1.18-1.25-1.77-2.49-3.73-2.44-2.92 1.32-5.48 3.54-8.17 5.28-10.55 7.05-21.68 13.26-32.94 19.1-19.85 10-40.54 19.11-61.85 25.54 5.54-14.49 8.81-30.13 11.3-45.41 3.94-24.86 5.79-49.85 6.47-74.99.48-33.68-.48-66.73-5.93-100.04-.27-1.55-.85-3.63-2.85-3.38-2.95-.22-3.12 2.38-2.78 4.6 1.55 9.43 2.75 18.91 3.56 28.44-34.23-4.03-67.73-13.41-99.24-27.36-21.3-9.47-42-21.12-60.52-35.32-11.48-8.87-22.5-19.07-31.33-30.62-2.43-3.12-4.16-6.25-7.22-8.83-1.3-1.38-2.8-1.09-4.48-.69-1.95 2.03-2.29 4.48-2.59 7.15-1.46 12.71-1.86 25.75-.17 38.45-7.28-2.8-13.78-7.98-18.83-13.86-17.36-20.53-20.44-52.48-6.43-75.59 1.17-1.88 1.48-4.26-.83-5.38-2.29-.27-2.93.74-4.12 2.4-5.14 8.19-7.77 17.21-9.21 26.71-12.46 7.4-23.07 18.7-32.67 29.44-9.12 10.63-17.7 21.78-25.43 33.47-9.83 14.73-17.74 30.79-23.36 47.59-1.76 5.81-3.42 11.82-4.08 17.85-.05 2.91 2.91 4.18 5.05 2.21.64-1.59 1.02-3.3 1.51-4.94-3.08 41.61 5.55 83.86 25.08 120.75 17.09 32.57 42.33 60.79 72.8 81.38-25.22 8.11-51.64 15.73-76.72 25.43-16.32 6.22-32.23 13.34-48.45 19.81 4.74-7.11 8.92-14.47 11.33-22.74 8.19-25.28 7.62-51.75 7.15-77.99-.85-11.32-.8-22.66-1.75-33.97-.75-10.33-.93-20.7-1.9-31.01-.66-12.99-1.05-26-1.75-38.99-.68-23.33-.6-46.66-.53-70 .54-22.17 3.54-44.45 9.66-65.79 1.65-5.86 4.4-11.15 6.94-16.65 4.07-8.32 10.29-13.78 16.67-20.2 5.83-5.99 12.45-10.93 19.16-15.86 27.33-20.89 53.74-46.31 83.8-63.19 7.25-4.11 14.64-7.79 22.72-10 7.3-2.15 14.41-2.29 21.96-2.69 13.64-.78 27.36-.5 41.03-.44Z" fill="rgba(14, 14, 14, 1)"/></g></g></svg>