<svg xmlns:dc="http://purl.org/dc/elements/1.1/" xmlns:cc="http://creativecommons.org/ns#" xmlns:rdf="http://www.w3.org/1999/02/22-rdf-syntax-ns#" xmlns:svg="http://www.w3.org/2000/svg" xmlns="http://www.w3.org/2000/svg" viewBox="0 0 762 762" fill="none"><metadata><rdf:RDF><cc:Work><dc:format>image/svg+xml</dc:format><dc:type rdf:resource="http://purl.org/dc/dcmitype/StillImage"/><dc:title>Adventurer</dc:title><dc:creator><cc:Agent><dc:title>Lisa Wischofsky</dc:title></cc:Agent></dc:creator><dc:source>https://www.instagram.com/lischis_adventures/</dc:source><cc:license rdf:resource="https://creativecommons.org/licenses/by/4.0/"/></cc:Work><cc:License rdf:about="https://creativecommons.org/licenses/by/4.0/"><cc:permits rdf:resource="https://creativecommons.org/ns#Reproduction"/><cc:permits rdf:resource="https://creativecommons.org/ns#Distribution"/><cc:permits rdf:resource="https://creativecommons.org/ns#DerivativeWorks"/><cc:requires rdf:resource="https://creativecommons.org/ns#Notice"/><cc:requires rdf:resource="https://creativecommons.org/ns#Attribution"/></cc:License></rdf:RDF></metadata><mask id="avatarsRadiusMask"><rect width="762" height="762" rx="0" ry="0" x="0" y="0" fill="#fff"/></mask><g mask="url(#avatarsRadiusMask)"><path d="M396.01 164.85c37.82 4.9 74.21 19.64 104.8 42.39 6.15 4.84 12.48 9.33 18.02 14.92 23.77 21.98 42.73 49.02 55.13 78.95 9.35 22.31 14.72 46.04 16.64 70.14 6.62.81 13.05 2.14 19.12 5 15.54 6.93 27.08 20.94 31.78 37.21 2.63 9.56 3.56 19.75 1.72 29.55-2.96 18.76-13.72 36.13-29.37 46.92-10.94 7.65-24.49 12.03-37.86 11.68-5.13-.05-10.04-1.6-15.13-1.79-1.85 2.17-3.23 4.84-4.76 7.25-18.66 29.62-44.57 54.51-74.64 72.4-28.1 16.73-59.9 27.16-92.46 30.32-11.08.7-21.87 2.05-32.98.74-51.69-2.3-102.07-23.44-140.15-58.43-29.03-26.55-50.84-60.83-62.54-98.39-7.09-22.85-10.62-46.78-10.07-70.71.52-40.34 12.53-80.58 33.94-114.76 19.1-30.81 45.91-56.58 77.2-74.83 29.63-17.28 63.35-27.68 97.59-29.87 14.66-1.47 29.44-.37 44.02 1.31Z" fill="#000"/><path d="M363 169.06c48.47-1.39 97.32 14.7 135.81 44.12 6.55 4.06 11.72 9.49 17.36 14.64 24.33 22.63 43.2 50.95 54.93 82.02 7.43 19.61 11.86 40.2 13.56 61.09-8.89.74-17.34 2.34-25.38 6.38-2.19 1.03-1.89 4.95.68 5.23 2.35.23 4.98-1.51 7.24-2.2 14.62-5.37 31.32-4.35 44.78 3.68 11.69 6.78 20.09 18.16 23.89 31.06 2.6 8.25 2.68 17.41 1.76 25.95-2.5 17.35-12.35 33.73-26.73 43.81-15.71 11.33-37.17 14.64-54.93 6.2-3.17-1.43-5.94-3.58-9.08-5.05-2.95-1.09-4.88 2.79-2.7 4.75 3.17 2.76 7.34 4.52 11 6.56-20.14 34.15-49.45 62.7-84.41 81.47-30.2 16.31-64.44 25.53-98.78 26.15-27.63.72-55.33-4.04-81.21-13.72-30.32-11.24-57.84-29.43-80.37-52.6-22.67-23.37-39.92-51.88-50.2-82.77-14.96-44.64-14.91-94.01.27-138.59 11.05-33.06 30.28-63.21 55.37-87.39 29.67-28.73 67.65-48.54 108.13-56.67 12.8-2.52 25.94-4.24 39.01-4.12Z" fill="rgba(158, 86, 34, 1)"/><path d="M605.03 404.4c2.63-.1 3.44 3.8 1.36 4.98-3.69 1.83-7.82 2.77-11.64 4.35-5.82 2.04-11.28 4.76-16.68 7.72 4.29 2.34 8.86 4.74 12.71 7.76 2.58 2.09 4.85 4.35 5.33 7.8-.26 3.59-2.73 6.55-5.45 8.69-5.86 4.66-13.92 7.18-20.79 10.26-1.75.62-4.43 1.99-5.59-.26-1.02-1.74-.06-3.11 1.57-3.87 6.65-3.3 14.86-5.62 20.79-10.16 1.37-1.14 3.39-2.74 3.61-4.62-4.07-5.63-12.42-8.59-18.23-12.09-2.34-1.72-2.29-4.24-.16-6.13 7.27-5.64 16.98-9.26 25.57-12.38 2.42-.83 5.03-1.95 7.6-2.05Z" fill="#000"/><g transform="translate(-161 -83)"><path fill-rule="evenodd" clip-rule="evenodd" d="M612.99 456.04c-8.4-14.32-22.44-25.12-38.46-29.54-12.78-3.63-26.45-3.13-39.02 1.1-15.79 5.52-29.25 17.14-36.82 32.08-3.28 6.32-5.17 13.09-6.5 20.06-4.4.35-8.76.83-13.04 1.93.188.504.294 1.03.396 1.539.273 1.36.52 2.594 2.244 2.921 2.35.223 4.762 0 7.146-.221.924-.085 1.844-.17 2.754-.229-.56 12.87 2.24 25.63 8.92 36.7 8.71 14.98 23.61 26.14 40.45 30.25 12.14 3.08 25.13 2.44 36.99-1.54 13.99-4.82 26.18-14.48 34.04-27.01 6.48-10.16 9.83-22.06 10.06-34.07.056-3.789-.398-7.446-.857-11.15-.12-.969-.241-1.942-.353-2.92.945-.109 1.903-.19 2.865-.271 2.307-.196 4.636-.393 6.845-.979 1.193-.461 1.438-1.638 1.68-2.801.099-.476.198-.948.36-1.369-4.39-1.13-8.7-.78-13.15-.28-.506-1.176-.99-2.354-1.473-3.528-1.498-3.645-2.981-7.253-5.077-10.672Zm.59 14.63c-4.82-13.64-13.95-25.42-26.54-32.68-13.32-7.97-29.57-10.1-44.6-6.46-14.55 3.64-27.43 12.73-35.54 25.37-4.25 6.79-7.73 14.51-8.83 22.5 5.954-.657 11.92-1.07 17.887-1.483 4.846-.335 9.693-.671 14.533-1.137 3.632-.325 7.273-.513 10.912-.701 4.858-.251 9.713-.501 14.538-1.079 16.386-1.117 32.786-2.395 49.169-3.671l8.471-.659Zm-200.2-17.09c11.97 6.48 20.98 17.39 25.57 30.15 2.69.16 5.36.38 8.03.75-.037.232-.071.462-.106.691-.156 1.028-.308 2.037-.594 3.059-1.042.76-2.471 1.03-3.832 1.287-.572.108-1.133.214-1.648.353 1.33 8.86 1.68 17.54-.78 26.25-3.51 13.23-12.13 24.91-23.71 32.19-10.65 6.72-23.58 9.67-36.09 8.03-16.11-1.81-30.98-11.25-39.64-24.94-6.25-9.68-8.98-21.04-8.76-32.5-2.42-.02-4.82-.1-7.23-.28.077-.367.111-.817.148-1.292.097-1.258.208-2.697 1.152-3.278 1.541-.487 3.188-.684 4.814-.877.61-.073 1.218-.146 1.816-.233 1.39-6.54 3.35-12.87 6.78-18.66 7.75-13.54 21.36-23.31 36.66-26.37 12.6-2.59 26.16-.54 37.42 5.67Zm19.769 30.83c-7.08-18.81-25.97-32.08-46.15-31.86-18.18-.19-35.6 10.43-43.83 26.64-2.2 4.2-3.57 8.69-4.72 13.28 7.002-.467 13.996-1.08 20.99-1.693 6.191-.543 12.382-1.086 18.58-1.527 3.774-.088 7.516-.469 11.258-.851 3.893-.396 7.786-.793 11.712-.859 2.094-.16 4.191-.308 6.29-.456 8.655-.612 17.331-1.225 25.87-2.674Z" fill="#000"/><path d="M615.13 476.4c1.79 9.43 1.83 19.44-.85 28.71-4.02 14.67-13.78 27.56-26.86 35.34-11.86 6.95-25.9 9.98-39.53 7.74-16.06-2.38-30.89-11.65-40.06-25.03-7.65-11.07-11.16-24.46-10.6-37.86 2.78-.26 5.55-.53 8.32-.81.58 6.88 2.87 13.16 8.11 17.84 9.26 8.79 25.12 8.57 33.95-.73 5.71-5.52 7.56-12.65 7.15-20.42 4.5-.49 8.95-1.09 13.47-1.39 15.64-.93 31.25-2.54 46.9-3.39ZM430.931 490.81c1.23-.4 2.51-.66 3.76-.97 3.28 11.9 1.31 24.64-4.45 35.44-6.94 12.82-19.63 22.19-33.98 24.89-17.42 3.66-36.18-3.36-47.37-17.1-8.08-9.7-11.83-22.11-11.18-34.67 16.43-1.61 32.94-2.6 49.35-4.39.17 5.54 1.15 10.77 4.71 15.18 5.35 7.13 14.85 10.26 23.42 7.93 7.1-2.26 13-7.85 15.04-15.09 1.18-3.82.53-7.36.7-11.22Z" fill="#fff"/></g><g transform="translate(-161 -83)"><g fill="#000"><path d="M501.99 384.96c9.91.12 19.87 3.23 28.83 7.31 3.36 1.88 7.05 4.01 7.31 8.29-5.14-.86-10.14-2.06-15.38-2.28-11.6-.68-23.13 1.36-33.25 7.23-2.54 1.41-4.95 3.26-7.64 4.35-1.8.27-3.92-1.99-3.94-3.73-.18-5.81 1.95-11.92 6.53-15.7 5.03-4.23 11.15-5.3 17.54-5.47ZM414.03 402.61c5.81.15 10.93 5.3 12.51 10.64.8 2.63-.46 5.72-3.53 5.61-8.82.21-18.21.03-26.81 2.26-7.52 2.01-14.74 6.71-21.36 10.74-1.22.81-2.57.96-3.98 1.22.33-1.93.64-3.66 1.94-5.21 3.28-4.33 6.78-8.58 10.74-12.3 5.88-5.17 13.01-8.96 20.32-11.66 3.23-1.11 6.76-1.58 10.17-1.3Z"/></g></g><g transform="translate(-161 -83)"><path d="M397.16 574.5c18.25-.16 37.53-.27 55.83-.38 15.65-.52 31.34-.22 47-.46 3.82-.04 7.34-.21 10.91 1.4 4.24 1.92 7.84 6.05 7.61 10.93.36 6.41-5.56 10.94-11.5 11.3-33 .13-66.01.4-99.01.56-4.37-.09-8.11.99-12.35-.48-.27-.76-.54-1.53-.82-2.29 1.66-5.65 2.44-11.14-.14-16.68-1.03-2.03.23-3.9 2.47-3.9Z" fill="#000"/><path d="M510.489 581.58c2.16 1.83 3.27 4.85 1.35 7.29-2.42 3.37-7.56 2.6-11.15 2.54-.04-4-.07-8.01-.08-12.02 3.35.28 7.2-.21 9.88 2.19ZM401.711 580.18c1.68-.01 3.36-.02 5.03-.02.16 4.03.22 8.05.15 12.09-1.71.01-3.41.01-5.12.02.41-4.09.45-8.01-.06-12.09ZM412.52 580.16c4.52-.07 9.04-.06 13.57-.04.12 3.99.23 7.99.27 11.99-4.4.08-8.8.09-13.2.09-.22-4.02-.39-8.03-.64-12.04ZM432.141 579.88c6.32-.04 12.64-.05 18.96-.1.07 4.01.1 8.02.09 12.03-6.33-.07-12.64.29-18.96.24-.13-4.06-.17-8.11-.09-12.17ZM456.801 579.78c6.23-.08 12.46-.06 18.69-.14.13 4.01.25 8.03.3 12.04-6.2.13-12.4.03-18.6.18-.29-4.03-.39-8.05-.39-12.08ZM481.391 579.5c4.48.17 8.96.07 13.44.03.03 4.01.06 8.03.01 12.05-4.43.01-8.85.13-13.28-.01-.05-4.03-.29-8.04-.17-12.07Z" fill="#fff"/></g><g transform="translate(-161 -83)"/><g transform="translate(-161 -83)"><path fill-rule="evenodd" clip-rule="evenodd" d="M498.612 201.129c-9.532-.853-19.017-1.703-28.613-.539-3.914-.152-7.587.573-11.289 1.303-1.888.373-3.782.747-5.721 1.007-6.201 1.319-12.074 3.316-17.978 5.325-2.961 1.007-5.93 2.017-8.952 2.945-13.49 4.43-27.3 9.27-39.75 16.14l-.768.449c-2.422 1.413-4.975 2.904-6.982 4.811-2.558 2.35-4.461 4.995-6.408 7.702-.663.922-1.331 1.851-2.032 2.778-.545.764-1.16 1.439-1.77 2.107-1.002 1.098-1.99 2.181-2.63 3.623-.328.721-1.14 1.156-1.902 1.565-.306.164-.603.323-.858.495-23.16 13.56-43.7 32.38-57.74 55.38-17.48 28.24-24.78 63.17-16.73 95.7.927 2.959.174 5.76-.601 8.645-.221.82-.443 1.646-.629 2.485-3.2 11.52-5.95 22.12-8.61 33.81-.843 3.265-1.446 6.587-2.048 9.909-.627 3.455-1.254 6.911-2.152 10.301-.193 2.149-.591 4.239-.989 6.327-.449 2.352-.897 4.702-1.051 7.133-.845 2.731-1.1 5.6-1.353 8.463-.257 2.892-.512 5.778-1.377 8.507-.323 6.133-.895 12.458-1.468 18.781-.634 6.996-1.268 13.99-1.562 20.719-.262 2.5-.265 5.034-.269 7.565-.005 3.169-.009 6.334-.521 9.425-.005.858-.008 1.717-.012 2.575-.016 4.147-.032 8.301-.248 12.435-.338 7.738-.151 15.448.037 23.163.111 4.609.223 9.219.223 13.837l.056 1.498c.368 9.987.718 19.482 1.594 29.502.07 4.858.592 9.649 1.114 14.442.38 3.486.76 6.973.966 10.488.609 3.327 1.025 6.68 1.442 10.035.604 4.864 1.209 9.731 2.398 14.525 2.49 14.01 6.21 27.91 10.42 41.5l.589 1.781c4.33 13.118 8.589 26.018 15.841 37.929 1.15 1.4 2.65 1.52 4.26.83 1.507-1.782 1.006-4.314.551-6.613-.124-.63-.245-1.243-.321-1.817-.161-1.431-.33-2.856-.5-4.277-.745-6.26-1.482-12.459-1.45-18.823-.74-12.01-.37-24 .23-36 .077-.952.13-1.895.183-2.833.151-2.707.299-5.368 1.027-8.057.504-5.171 1.32-10.684 2.138-16.219.741-5.008 1.485-10.034 2.002-14.841.128-.27.246-.554.365-.841.234-.563.47-1.135.795-1.619-.25 4.54.3 8.92 1 13.39.316 5.286 1.245 10.431 2.168 15.545.511 2.828 1.02 5.647 1.422 8.475 4.22 21.92 10.18 42.76 19.94 62.92 2.56 6.29 5.33 12.51 8.43 18.56.84 1.84 2.47 2.78 4.48 2.74 6.485-.707 12.862-1.627 19.222-2.544 8.852-1.277 17.672-2.549 26.708-3.236 5.885-1.109 11.971-1.495 17.986-1.876 1.202-.076 2.401-.152 3.594-.234 3.985-.903 8.141-1.08 12.285-1.257 2.418-.103 4.832-.206 7.205-.453 2.3-.27 4.61-.31 6.93-.29 3.445-.683 6.867-.75 10.316-.817 2.559-.05 5.134-.101 7.744-.403 2.747-.014 5.514-.04 8.295-.067 17.876-.174 36.339-.353 53.715 2.987 13.975 1.971 26.751 5.552 39.638 9.163 10.452 2.93 20.977 5.88 32.272 8.007 20.68 3.91 43.22 3.3 63.18-3.68 10.54-3.09 19.74-8.41 28.62-14.79 17.47-12.92 32.79-29.39 43.93-48.07 2.59-4.422 3.911-7.67 5.284-11.046.8-1.969 1.619-3.981 2.716-6.294 2.429 8.051 3.441 16.323 4.458 24.641.127 1.033.253 2.066.382 3.099.45 16.62.12 32.7-3.3 49.03a76.535 76.535 0 0 1-.774 2.455c-.482 1.471-.964 2.944-1.286 4.455-.14 1.95 1.48 4.11 3.58 3.66 1.413-.565 2.254-1.724 3.107-2.899.143-.198.287-.395.433-.591 18.63-26.58 30.92-58.55 39.25-89.71 4.36-16.66 7.66-32.29 10.13-49.38.233-1.899.573-3.771.912-5.641.508-2.795 1.015-5.584 1.158-8.449.719-3.366.986-6.802 1.253-10.233.205-2.634.409-5.264.817-7.857 2.51-23.93 2.94-47.85 2.65-71.9-.012-.38-.012-.781-.011-1.193.003-1.54.006-3.229-.689-4.507-1.81-.93-3.9-.24-4.5 1.77-5.87 15.72-17.78 28.77-33.72 34.5-12.43 4.97-26.5 4.6-39.26 1.08l-.66-.62c.03-1.69.69-3.53 1.28-5.12 8.82-27 16.85-54.86 21.45-82.9l.012-.129c.186-1.982.361-3.862.968-5.771.44-1.67.603-3.378.765-5.076.213-2.236.424-4.453 1.265-6.534.26-3.34.56-6.63 1.2-9.92 15.67.09 30.89 6.74 40.35 19.45.419.53.791 1.131 1.167 1.737.666 1.075 1.341 2.164 2.293 2.893 1.85 1.09 4.27-.64 4.24-2.65-.13-2.731-.478-5.438-.827-8.15-.294-2.282-.588-4.566-.753-6.87-.537-2.264-.759-4.566-.979-6.858-.267-2.782-.533-5.548-1.361-8.212-.23-3.895-.945-7.64-1.663-11.403-.407-2.13-.815-4.265-1.137-6.437-3.16-19.18-7.74-38.33-12.81-57.08-6.21-23.29-14.52-45.52-23.09-68-8.12-22.04-24.01-40.56-42.83-54.29-10.23-7.58-21.59-13.72-33.46-18.32-2.646-.752-5.238-1.647-7.831-2.542-2.404-.831-4.809-1.661-7.259-2.378-3.529-.894-7.148-1.868-10.781-2.846-5.311-1.43-10.652-2.869-15.789-4.074-25.05-7.25-50.05-11.76-75.9-15.11-1.948-.436-3.925-.686-5.903-.937-1.697-.215-3.396-.431-5.077-.763-1.972-.372-3.935-.548-5.889-.724-2.724-.244-5.431-.488-8.121-1.256-3.832-.383-7.665-.874-11.501-1.366-7.191-.922-14.392-1.845-21.619-2.054l-2.367-.211ZM479.52 330.36l-.17.19c-1.17 1.264-1.426 3.42-1.659 5.379-.088.738-.172 1.447-.301 2.071-.552 2.353-.88 4.726-1.208 7.1-.361 2.611-.722 5.223-1.382 7.81a942.668 942.668 0 0 1-.698 6.899c-.884 8.536-1.772 17.121-1.812 25.681-.582 2.774-.607 5.699-.632 8.583-.009.983-.017 1.961-.048 2.927.006 2.048-.007 4.098-.02 6.147-.034 5.297-.068 10.595.22 15.873 0 1.64-1.26 3.48-2.82 3.99-1.34.225-2.721.189-4.094.154-.636-.017-1.269-.034-1.896-.024-4.81-.541-9.702-.672-14.591-.804-3.791-.102-7.581-.203-11.329-.496-5.72-.4-11.35-.62-17.09-.74-2.086-.457-4.172-.455-6.278-.453-.569.001-1.139.001-1.712-.007-2.412 0-4.897-.122-7.402-.245-4.91-.242-9.9-.487-14.588.175-1.65.22-3.31.2-4.28-1.37-8.95-14-14.09-29.79-16.33-46.18-1.18-6.2-1.74-12.72-2.02-19.02-.476-3.12-.465-6.318-.453-9.443.011-3.106.022-6.141-.447-8.957-.598 3.67-1.39 7.342-2.182 11.019-.745 3.456-1.492 6.916-2.078 10.381-.244 2.538-.542 5.051-.84 7.556-.728 6.121-1.449 12.192-1.35 18.444-.008 1.131-.018 2.26-.029 3.387-.097 10.295-.192 20.409 1.809 30.613.67 3.09-2.29 4.45-4.79 4.83-2.418.018-4.833-.036-7.247-.09-4.256-.095-8.51-.19-12.773.11-1.701.162-3.506.182-5.326.202-3.016.034-6.074.068-8.774.748-3.22 1.7-6.43 4.63-9.06 7.14-.867 2.048-1.143 4.536-1.414 6.972-.178 1.609-.354 3.195-.696 4.618-2.56 21.69-2.3 43.94 1.35 65.47.534 1.538.752 3.145.969 4.745.239 1.759.477 3.511 1.131 5.155 3.53 16.9 9.54 33.41 17.06 48.95 26.89 55.54 78.18 98.22 137.77 114.25 6.324 2.136 13.327 3.392 20.076 4.603 2.002.359 3.981.714 5.914 1.087.939.103 1.876.2 2.812.298 3.242.337 6.47.673 9.698 1.232 32.51 2.43 65.18-1.38 95.71-12.99 16.29-6.05 31.9-14.09 46.29-23.84 2.628-1.776 5.176-3.659 7.723-5.541 2.056-1.519 4.112-3.038 6.207-4.499 1.673-9.254 2.963-18.487 4.257-27.752.493-3.531.987-7.066 1.503-10.608.38-3.927.692-7.864 1.004-11.802.567-7.145 1.133-14.29 2.106-21.368.05-4 .2-7.93.53-11.92.707-7.704.921-15.564 1.137-23.454.178-6.519.356-13.058.813-19.546.037-7.088.159-14.155.281-21.217.24-13.911.48-27.801.069-41.783-.072-.358-.088-.822-.105-1.316-.04-1.148-.085-2.455-.855-2.944-5.932-2.531-11.949-4.568-18.012-6.621-1.746-.591-3.495-1.183-5.248-1.789a75.65 75.65 0 0 0-2.133-.691c-2.787-.874-5.733-1.798-7.787-3.709-1.277-.951-1.678-2.787-2.015-4.332-.045-.209-.09-.413-.135-.608-2.35-8.59-5.79-16.6-9.47-24.69-.318 1.626-.174 3.384-.033 5.114.072.876.143 1.745.153 2.586.05 5.65-.22 11.23-1.87 16.67-1.41 3.22-4.64 3.21-7.64 2.6-2.349-.62-4.744-.795-7.147-.97-1.975-.143-3.956-.288-5.923-.68-3.346-.402-6.729-.545-10.108-.688-2.256-.095-4.51-.19-6.752-.362-2.27-.41-3.32-2.35-3.13-4.57.59-23.55-6.43-46.65-16.55-67.7-.328 1.896-.14 3.865.047 5.821.092.962.183 1.922.213 2.869.24 12.44.39 24.66-1.27 37.01-.094 3.287-.621 6.488-1.15 9.698-.317 1.927-.635 3.858-.86 5.812-.46 1.5-1.32 3.36-2.87 4-2.04 1.03-4.84.65-7.02.22-15.521-2.184-29.986-1.082-44.937.058-4.286.326-8.611.656-13.013.912l-.179.03c-3.22.532-8.23 1.362-10.321-1.75-1.07-.973-1.24-2.347-1.41-3.721-.073-.59-.146-1.181-.29-1.739-.776-2.456-1.066-4.98-1.356-7.513-.23-2.004-.461-4.013-.934-5.997-.412-4.529-.925-9.11-1.44-13.704-.836-7.457-1.675-14.949-2.09-22.306.055-3.252-.283-6.438-.621-9.626-.344-3.254-.69-6.511-.619-9.844-.451-1.542-.541-3.092-.631-4.653-.054-.928-.108-1.861-.239-2.797l-.153-.875c-.453-2.575-.923-5.251-.717-7.845Z" fill="#000"/><path d="M475.54 205.85c29.64-.32 57.29 4.9 86.47 8.64 11.73 1.97 23.34 3.27 34.99 5.81 14.16 2.59 28.55 6.72 42.51 10.26 13.44 3.86 27.72 6.83 40.54 12.34 10.11 4.41 19.61 9.98 28.41 16.61 15.56 11.92 29.37 27.45 37.14 45.6 9.66 24.76 18.76 49.07 25.57 74.81 8.03 29.68 13.91 60.36 17.61 90.84l-.49-.14c-10.11-10.58-24.91-16.61-39.48-16.6l-.48-.91c1.22-4.64 1.27-9.51 2.61-14.1.41-1.8.1-5.35-1.99-5.94-2.52-.23-3.3 3.04-3.8 4.92-2.61 14.35-4.32 28.69-6.66 43.01-3.96 25.56-10.34 49.87-18.06 74.5-12.18 38.17-25.42 76.84-44.76 112.06-6.35 12.15-13.39 23.85-21.27 35.06 9.97-28.49 15.74-57.72 19.73-87.59 1.88-11.39 2.43-22.51 3.69-33.95 1.46-16.84 2.06-32.35 3.03-49.1.7-14.73.62-29.25.96-43.98.25-12.18-.64-26.94-.15-38.38 4.02.69 8.2 3.53 12.33 4.44 1.92-.01 3.38-1.87 2.64-3.7-.66-1.04-1.68-1.63-2.73-2.2-15.57-6.93-31.56-11.88-47.58-17.46-4.43-16.55-12.09-31.04-19.71-46.31-1.26-1.91-3.38-2.83-5.22-1.01-1.25 2.31.42 5.1.81 7.53.75 4.38 1.81 8.64 2.17 13.08.72 3.34.13 6.66.78 10-.05 3.87-.38 7.69-.83 11.51-.62.42-1.38.53-2.31.32-9.24-1.03-18.34-2.25-27.67-2.2-.5-.55-.71-1.11-.63-1.68.21-6.75-.93-13.71-1.47-20.43-1.03-3.77-1.46-7.65-2.47-11.41-2.13-9.07-5.42-17.44-8.86-26.04-3.08-7.04-6.48-14.44-11.14-20.58-.28-4.49-1.3-8.99-1.75-13.5-1.68-6.65-1.7-14.17-4.55-20.44-2.17-1.94-5.14-.41-4.73 2.47 2.36 10.71 4.27 22.21 5.58 33.08 1.87 15.36 1.65 30.48 1.54 45.91-.49 7.47-1.22 18.01-2.86 25.17-5.46.21-12.4-1.42-18-1.36-8.92-.49-18.18.41-27.07 1.37-7.7.06-15.4 1.59-23.11 1.68l-.61-.78c-3.43-19.15-5.17-38.72-6.59-58.09-.52-12.56-2.39-25.53-3.89-37.98-.55-2.23-.4-4.95-2.72-6.2-2.4-1.08-4.65.77-4.88 3.18-2.31 7.56-3.8 15.29-5.01 23.09-1.47 5.57-1.68 11.23-2.6 16.91-.53 7.03-1.68 13.95-1.82 21-.45 12.86-.91 25.65-.19 38.52-3.83-.03-7.75-.19-11.58-.43-15.7-1.24-32.49-1.11-48-1.98-5.25-.55-11.72.07-16.84-.21-5.38-7.55-9.13-17.46-11.65-26.4-3.41-12.34-4.72-24.72-5.57-37.49-.07-8.81-.59-18.38 1.33-26.98 2.41-14.22 8.17-27.09 15.19-39.6 1.54-1.83 2.56-4.33.33-6.1-2.37-1.01-3.81.65-4.95 2.47-7.17 11.41-13.4 23.57-18.09 36.21-6.75 19.01-11.16 38.83-12.13 59.01-1.15 9.93.19 19.56.2 29.44.8 1.46.4 2.9.65 4.56.13 1.9.83 4 .5 5.87-8.94.11-17.98-.15-26.89.59-1.4-.01-4.04 1.03-4.93-.32-.97-4.09-2.38-7.94-2.72-12.16-2.15-17.21-.05-35.58 5.95-51.86.99-2.28 2.12-4.41.18-6.59-2.71-.6-3.54-.06-4.72 2.34-6.25 15.72-8.28 32.29-7.89 49.13.72 4.37.36 8.73 1.78 12.98.17 3.1 1.81 5.81 2.1 8.75-4.43 3.24-8.78 7.62-13.49 10.92-9.23-17.1-14.46-36.17-14.15-55.66-.21-30.7 12.73-60.25 32.55-83.33 20.92-24.39 49.76-42.2 80.38-51.55 3.11-1.63 2.51-5.35-1.05-5.55-9.04 2.33-18.05 6.32-26.58 10.12 2.43-3.95 5.43-7.47 9.56-9.73 15.78-9.35 34.77-14.85 52.1-20.66 8.04-2.82 16.44-5.29 24.92-6.26 4.14-.87 8.35-.53 12.54-1.19Z" fill="rgba(62, 172, 44, 1)"/><path d="M292.6 415.65c1.98 5.1 4.14 10.07 6.76 14.89 1.72 3.08 2.62 6.65 6.95 6.21.07 4.69-1.02 10.43-1.42 15.25-1.59 23.14-.27 46.4 5.24 68.93 9.85 42.79 32.74 82.15 64.71 112.23 38.37 36.11 89.58 58 142.16 60.31 11.95 1.17 23.14-.11 35.01-.92 39.05-4.17 76.81-18.8 108.47-42.06.82-.61 1.48-1.31 2.14-2.09.01 4.38-1.67 8.24-2.23 12.51-4.66 19.29-10.03 39.45-19.09 57.2-.81 1.91-2.8 4.42-1.93 6.56.97 1.94 3.38 2.07 4.78.49 14.32-17.95 27.53-36.63 37.82-57.22 15.12-27.71 25.97-57.03 36.22-86.77 2.51-.25 5.28 1.25 7.8 1.6 7.13 1.01 13.82 2.03 21 .83 18.88-1.63 36.04-12.54 46.18-28.46l.67-.04c-.1 9.66.25 19.28-.59 28.92-1.23 27-4.23 55.35-9.45 81.88-7.48 38.02-18.63 74.2-38.42 107.77-.75-2.99.65-6.52.84-9.57 1.19-14.7 1.62-29.5-.12-44.16-1.69-8.66-3.24-17.5-6.01-25.9-.63-1.87-3.03-2.14-4.64-1.52-1.37 1.06-1.84 2.86-2.6 4.39-1.99 6.34-4.41 12.67-7.56 18.52-7.19 12.51-16.55 23.93-26.8 34.05-11.91 11.61-26.13 22.48-42 27.94-21.05 7.44-43.73 8.25-65.48 3.54-14.68-2.91-28.75-7.55-42.91-11.2-12.06-3.23-23.85-5.02-36.09-7.01-16.94-1.77-33.88-1.9-50.9-1.52-36.82 1.74-71.61 5.06-108.03 10.47-1.82-.07-5.49 1.53-6.68-.06-3.37-7.32-6.46-14.83-9.74-22.17-14.38-33.73-20.91-70.97-22.82-107.44.29-2.57-.91-5.35-3.93-4.66-2.4 1.09-2.17 3.87-3.21 6.15-1.45 6.32-3.39 13.06-4.13 19.49-2.65 14.31-4.56 28.48-5.67 42.99-.24 9.69-.48 19.31-.02 29-.28 5.26 1.28 10.49.73 15.68-8.76-23.09-15.43-47.48-19.89-71.77-3.08-21.36-5.24-43.33-5.71-64.91-.96-8.67-.36-17.31-.87-26-.03-18.35.09-36.85 1.5-55 0-8.74 1.61-17.28 2-26 3.14-30.87 9.43-61.75 17.96-91.35Z" fill="rgba(62, 172, 44, 1)"/></g></g></svg>