<svg xmlns:dc="http://purl.org/dc/elements/1.1/" xmlns:cc="http://creativecommons.org/ns#" xmlns:rdf="http://www.w3.org/1999/02/22-rdf-syntax-ns#" xmlns:svg="http://www.w3.org/2000/svg" xmlns="http://www.w3.org/2000/svg" viewBox="0 0 762 762" fill="none"><metadata><rdf:RDF><cc:Work><dc:format>image/svg+xml</dc:format><dc:type rdf:resource="http://purl.org/dc/dcmitype/StillImage"/><dc:title>Adventurer</dc:title><dc:creator><cc:Agent><dc:title>Lisa Wischofsky</dc:title></cc:Agent></dc:creator><dc:source>https://www.instagram.com/lischis_adventures/</dc:source><cc:license rdf:resource="https://creativecommons.org/licenses/by/4.0/"/></cc:Work><cc:License rdf:about="https://creativecommons.org/licenses/by/4.0/"><cc:permits rdf:resource="https://creativecommons.org/ns#Reproduction"/><cc:permits rdf:resource="https://creativecommons.org/ns#Distribution"/><cc:permits rdf:resource="https://creativecommons.org/ns#DerivativeWorks"/><cc:requires rdf:resource="https://creativecommons.org/ns#Notice"/><cc:requires rdf:resource="https://creativecommons.org/ns#Attribution"/></cc:License></rdf:RDF></metadata><mask id="avatarsRadiusMask"><rect width="762" height="762" rx="0" ry="0" x="0" y="0" fill="#fff"/></mask><g mask="url(#avatarsRadiusMask)"><path d="M396.01 164.85c37.82 4.9 74.21 19.64 104.8 42.39 6.15 4.84 12.48 9.33 18.02 14.92 23.77 21.98 42.73 49.02 55.13 78.95 9.35 22.31 14.72 46.04 16.64 70.14 6.62.81 13.05 2.14 19.12 5 15.54 6.93 27.08 20.94 31.78 37.21 2.63 9.56 3.56 19.75 1.72 29.55-2.96 18.76-13.72 36.13-29.37 46.92-10.94 7.65-24.49 12.03-37.86 11.68-5.13-.05-10.04-1.6-15.13-1.79-1.85 2.17-3.23 4.84-4.76 7.25-18.66 29.62-44.57 54.51-74.64 72.4-28.1 16.73-59.9 27.16-92.46 30.32-11.08.7-21.87 2.05-32.98.74-51.69-2.3-102.07-23.44-140.15-58.43-29.03-26.55-50.84-60.83-62.54-98.39-7.09-22.85-10.62-46.78-10.07-70.71.52-40.34 12.53-80.58 33.94-114.76 19.1-30.81 45.91-56.58 77.2-74.83 29.63-17.28 63.35-27.68 97.59-29.87 14.66-1.47 29.44-.37 44.02 1.31Z" fill="#000"/><path d="M363 169.06c48.47-1.39 97.32 14.7 135.81 44.12 6.55 4.06 11.72 9.49 17.36 14.64 24.33 22.63 43.2 50.95 54.93 82.02 7.43 19.61 11.86 40.2 13.56 61.09-8.89.74-17.34 2.34-25.38 6.38-2.19 1.03-1.89 4.95.68 5.23 2.35.23 4.98-1.51 7.24-2.2 14.62-5.37 31.32-4.35 44.78 3.68 11.69 6.78 20.09 18.16 23.89 31.06 2.6 8.25 2.68 17.41 1.76 25.95-2.5 17.35-12.35 33.73-26.73 43.81-15.71 11.33-37.17 14.64-54.93 6.2-3.17-1.43-5.94-3.58-9.08-5.05-2.95-1.09-4.88 2.79-2.7 4.75 3.17 2.76 7.34 4.52 11 6.56-20.14 34.15-49.45 62.7-84.41 81.47-30.2 16.31-64.44 25.53-98.78 26.15-27.63.72-55.33-4.04-81.21-13.72-30.32-11.24-57.84-29.43-80.37-52.6-22.67-23.37-39.92-51.88-50.2-82.77-14.96-44.64-14.91-94.01.27-138.59 11.05-33.06 30.28-63.21 55.37-87.39 29.67-28.73 67.65-48.54 108.13-56.67 12.8-2.52 25.94-4.24 39.01-4.12Z" fill="rgba(242, 211, 177, 1)"/><path d="M605.03 404.4c2.63-.1 3.44 3.8 1.36 4.98-3.69 1.83-7.82 2.77-11.64 4.35-5.82 2.04-11.28 4.76-16.68 7.72 4.29 2.34 8.86 4.74 12.71 7.76 2.58 2.09 4.85 4.35 5.33 7.8-.26 3.59-2.73 6.55-5.45 8.69-5.86 4.66-13.92 7.18-20.79 10.26-1.75.62-4.43 1.99-5.59-.26-1.02-1.74-.06-3.11 1.57-3.87 6.65-3.3 14.86-5.62 20.79-10.16 1.37-1.14 3.39-2.74 3.61-4.62-4.07-5.63-12.42-8.59-18.23-12.09-2.34-1.72-2.29-4.24-.16-6.13 7.27-5.64 16.98-9.26 25.57-12.38 2.42-.83 5.03-1.95 7.6-2.05Z" fill="#000"/><g transform="translate(-161 -83)"><path d="M551.26 424.28c22.14-1.95 44.44 7.9 57.71 25.75 8.64 11.47 13.27 25.62 13.2 39.97-.27 12.75-4.02 25.34-11.26 35.89-8.84 13.09-22.73 23-38.11 26.7-16.24 4.16-34.1 1.72-48.57-6.76a65.054 65.054 0 0 1-24.72-25.38c-7.13-12.81-9.27-27.78-6.97-42.19 2.31-13.58 8.97-26.26 18.91-35.81a65.285 65.285 0 0 1 39.81-18.17Z" fill="#000"/><path d="M549.27 430.26c15.88-1.96 31.69 2.29 44.29 12.15 14.44 11.15 23.28 29.32 22.8 47.59.05 22.95-14.44 44.84-35.55 53.82-10.61 4.63-22.39 6.3-33.81 4.22-16.4-2.64-31.49-12.63-40.35-26.68-5.6-8.77-8.74-18.94-9.37-29.31-.6-14.46 4.23-29.16 13.41-40.36 9.45-11.75 23.64-19.57 38.58-21.43Z" fill="#fff"/><path d="M381.25 447.09c11.52-1.18 23.47 1.35 33.46 7.24 12.25 7.09 21.47 19.09 25.21 32.74 3.15 11.43 2.54 23.97-1.86 34.99-4.67 11.91-13.64 22.02-24.9 28.09-10.04 5.45-21.85 7.71-33.18 6.15-15.78-1.82-30.34-11-39-24.28-5.54-8.32-8.46-18.03-9.11-27.97-.31-12.55 3.41-25.11 10.99-35.17 9.06-12.23 23.25-20.25 38.39-21.79Z" fill="#000"/><path d="M378.26 453.29c11.25-2.04 22.9-.02 32.85 5.6 17.73 9.81 28.17 31.02 24.42 51.03-1.74 10.34-6.78 19.99-14.36 27.25-8.1 7.95-18.9 12.75-30.17 13.77-20.15 1.85-40.17-9.84-48.64-28.18-7.75-16.18-5.75-36.01 5.04-50.33 7.38-10.04 18.61-16.93 30.86-19.14Z" fill="#fff"/><path d="M526.47 467.49c12.02-2.86 24.89 4.24 29.36 15.65 2.21 6 2.32 12.7-.08 18.66-3.15 8.33-10.9 14.62-19.7 15.97-8.11 1.41-16.74-1.45-22.47-7.35-6.99-7.09-9.21-18.1-5.46-27.34 3.06-7.95 10.06-13.77 18.35-15.59ZM398.26 478.35c12.27-2.56 24.75 5.81 27.12 18.08.66 5.63.55 11.35-2.68 16.22-4.79 8.01-14.36 12.76-23.63 11.14-10.66-1.71-18.99-10.97-19.33-21.79-.63-11.26 7.45-21.53 18.52-23.65Z" fill="#000"/></g><g transform="translate(-161 -83)"><g fill="#000"><path d="M523.24 384.36c6.17-.42 13.09-.61 18.45 2.95 3.68 2.44 5.4 6.35 4.48 10.74-1.55 6.16-6.62 10.92-11.61 14.5-8.97 6.29-19.71 10.24-30.57 11.53-5.61.53-12.5.43-17.47-2.55-3.63-2.13-5.9-6.12-5.2-10.36 1.02-5.75 5.49-10.49 9.94-13.96 9.19-7.03 20.55-11.34 31.98-12.85ZM392.22 401.23c9.11-.36 18.31.51 26.31 5.24 3.85 2.26 7.34 5.89 7.89 10.49.34 4.21-1.96 7.8-5.19 10.27-4.52 3.55-9.87 5-15.43 5.99-9.95 1.02-20.55.32-29.48-4.58-3.87-2.29-7.88-5.85-8.47-10.57-.73-4.27 2.02-8.47 5.39-10.84 5.4-3.87 12.43-5.69 18.98-6Z"/></g></g><g transform="translate(-161 -83)"><path d="M529.13 644.56c2.47.19 4.68 1.43 3.9 4.25-1.38 2.08-4.46 1.3-6.64 1.51-14.91.63-29.68 3.43-43.79 8.28-4.83 1.7-9.55 3.58-13.94 6.24-2 .93-3.37 2.59-5.67 1.42-2.15-1.55-1.16-3.48.08-5.2 8.48-4.96 17.64-8.35 27.08-10.96 12.63-3.36 25.89-5.66 38.98-5.54Z" fill="#000"/></g><g transform="translate(-161 -83)"/><g transform="translate(-161 -83)"><path d="M461.751 187.23c8.3 4.64 15.73 11.78 19.32 20.73 2.74 6.63 2.82 14.11.3 20.83 31.37-9.44 63.85-14.62 96.63-14.61 13.9.31 27.77 1.39 41.47 3.74-.13-2.55-1.27-6.06.08-8.36 1.4-.88 2.86-.8 4.45-.84 7.56.09 14.7.53 21.74 3.57 7.31 3.31 12.98 8.97 17.02 15.84 3.32-3.42 7.04-6.84 11.13-9.31 2.17-1.29 4.69-1.84 6.88-3.04 2.47-2.61 4.18-5.72 7.09-7.96 4.63-3.75 11.03-7.22 17.17-6.65 4.07.03 7.32 3.51 8.8 7.02 3.43 8.83 3.03 18.07.66 27.1 7.28-5.11 15.46-8.53 24.53-7.47 5.34.61 9.62 3.33 13.62 6.73 4.08-3.53 8.75-6.13 13.71-8.21 11.53-4.85 24.5-7.47 36.64-10.62 3.04-.79 4.75.92 5.23 3.76 1.46 8.93 1.6 19.36-2.24 27.76 5.49 5.06 9.9 10.75 11.35 18.25 1.14 4.27.34 8.22-.1 12.49.37.52.82.99 1.35 1.4 14.59 10.7 20.3 31.86 15.64 48.91 10.55 3.01 18.14 11.15 22.63 20.89 1.55 3.63 2.95 7.88 2.63 11.86-.03 1.87-1.74 2.94-3.48 2.86-2.33-.27-4.64-1.35-6.84-2.12-5.17-2.04-10.79-2.32-16.27-2.62 3.15 7.18 4.48 15.26 5.47 23.01.87 7.01.49 13.63-1.18 20.49 9.52 11.62 15.9 27 14.35 42.21-.19 2.17-3.29 4.22-5.22 2.78-14.99-8.47-32.18-13.44-49.2-15.6 33.74 22.94 57.67 61.24 62.05 101.94 1 12.08.7 24.18-2.16 36-3.13 13.25-9.38 26.33-18.57 36.43-1.8 2.13-6.41 2.21-6.1-1.4.28-10.33.47-20.83-4.54-30.24-4.48 13.04-11.4 25.09-21.16 34.89-11.83 12.14-27.16 20.49-43.63 24.36-19.17 4.6-39.24 3.27-57.92-2.84-4.11 5.85-7.51 13.53-6.62 20.82.41 2.37-.62 2.96-2.12 4.46-3.63-2.4-7.38-4.43-10.8-7.05-4.49-3.42-8.54-7.46-12.28-11.68-1.01-1.04-1.2-2.31-1.61-3.64 18.36-15.97 33.94-35.2 46.03-56.31 1.59-3.12 4.75-1.27 7.3-.79 18.38 5.03 37.85-.71 51.99-13.07 13.84-12.09 22.54-30.47 22.25-48.93.22-11.07-2.93-22.11-8.94-31.41-6.39-9.97-16.23-17.62-27.53-21.2-10.09-3.3-21.33-3.11-31.45-.12-4.65 11.58-10.84 22.67-18.51 32.52-7.11 8.59-14.9 16.46-23.76 23.23-1.28.93-2.48 1.83-4 2.32-1.88.05-3.45-1.36-2.89-3.31 3.65-14.59 7.35-29.93 7.32-45.03.8-13.42-.42-27.01-3.34-40.14-13.35.59-25.87-5.49-34.99-14.97-6.2-6.59-9.3-15.03-9.9-23.99-2 4.43-3.76 9.24-4.32 14.08-.46 3.98.19 7.97-.12 11.92-.45 1.88-3.39 2.15-4.96 2.59-9.48 1.49-19.45 1.24-28.83-.87-11.81-2.58-22.78-8.69-30.45-18.15-8.59-10.43-12.15-24.13-11.75-37.47-.05-5.62 1.3-10.93 1.8-16.48-5.01 8.79-7.99 17.47-9.5 27.47-1.44 11.2-1.86 22.06 2.09 32.83.81 2.36 1.41 5.9-2.19 5.78-9.14-3.33-15.38-10.59-21.12-18.07-.25 4.61.22 8.56 1.68 12.92.41 1.91 1.91 4.72.39 6.43-1.21 1.85-3.78 1.95-5.74 2.47-25.91 4.91-52.82 7.76-79.2 6.6-18.8-1.21-37.82-3.79-55.02-11.95-10.4-4.98-20.04-12.25-25.19-22.84-2.64-5.23-3.34-10.74-3.94-16.48-6.3 6.51-9.96 15.9-12.36 24.51-2.55 8.75-2.92 17.82-1.76 26.83.27 2.79-2.54 3.38-4.73 3.01-6.03-1.06-11.96-3.07-17.62-5.4-4.15-1.65-7.88-4.09-11.98-5.84-3.73 16.66-6.42 33.06-6.28 50.21-1.1 51.72 17.54 103.48 50.81 143.03 2.47 2.94 5.16 5.14 5.94 9.13-4.03 3.79-8.72 3.49-13.89 3.91-15.88.36-30.6-6.5-42.73-16.33-16.22-13.37-27.75-32.38-32.1-52.94-1.54-7.22-1.51-14.44-1.33-21.77-8.86 9.52-14.86 22.47-15.36 35.54-.19 1.96-2.99 2.83-4.4 1.5-1.39-1.37-2.14-3.47-2.97-5.21-11.12-24.81-14.47-52.82-11.03-79.7 2.64-19.66 9.08-39.26 20.43-55.66 8.72-12.57 20.22-22.94 34.58-28.59-1.88-2.6-3.65-5.26-5.3-8.01-3.26 4.22-6.96 8.61-11.86 10.97-3.9 1.63-9.09 1.52-12.36-1.46-3.35-2.92-4.55-7.12-5.98-11.17-4.51.42-9.08.6-13.6.33-1.9.07-3.7-1.57-3.35-3.53.7-5.64 2.13-11.21 3.46-16.73-4.04-.01-8.09.58-11.66-1.72-4.41-2.71-5.83-7.69-5.97-12.59.11-9.69 5.13-18.95 13.08-24.46 4.81-3.32 10.7-4.23 16.38-4.87-4.18-4.99-7.49-10.71-10.02-16.69-2.42-5.74-2.8-11.88-2.15-18.02.4-3.5 2.93-6.8 6.32-7.88 4.91-1.29 9.8-.81 14.67.4.31-3.69 1.47-6.96 3.1-10.25-4.32-4.5-6.91-10.41-8.4-16.38-.51-2.97-.73-5.67 2.57-6.91 6.36-.67 13.02 1 19.6 1.08 1.02-10.86 6.15-20.93 13.71-28.69 1.9-1.75 3.8-3.59 6.61-3.18 1.55.09 2.65 1.89 3.7 2.9 3.82-6.91 9.38-14.63 17.09-17.41 7.36-2.82 16.11-2.21 23.31.85 2.48-3.57 5.1-8.33 9.94-8.74 4.96-.59 8.56 2.16 12.22 5.04 5.46 4.7 10.86 10.78 13.05 17.76 5.28-3.35 11.4-6.67 17.79-6.85 2.49-.05 4.01 1.89 3.78 4.28-.8 7.73-2.9 15.32-6.93 22.02 15.44-1.81 30.9-1.89 46.07 1.85.4-9.76-4.38-18.02-10.99-24.81-9.21-9.17-21.91-15.49-35-16.04-2.9 0-4.11-2.3-2.75-4.82 4.93-7.94 14.04-12.91 22.95-14.97 13.66-3.11 28.38-.77 40.59 6.02Z" fill="#000"/><path d="M461.86 194.1c7.29 4.81 13.62 12.08 15.22 20.89 1.1 5.26-.17 10.58-2.97 15.09-.92 1.56-1.86 3.52-.11 4.9 1.87 1.28 4.95.62 7 .03 44.24-13.67 93.07-19.44 138.87-11.11.62 5.04.55 10.1 1.1 15.14.55 4.92 2 9.55 3.68 14.17-6.3 2.32-8.9 7.73-10.83 13.73-3.58-5.97-9.38-10.89-16.31-12.3-4.28-1.07-9.29.31-12.24 3.65-3.92 4.36-5.19 9.97-4.56 15.72.53 7.35 6.14 13.01 12.69 15.68-5.68 3.39-11.18 8.21-13.05 14.79-1.92 6.32 1.92 14.15 8.66 15.46 6.58 1.17 11.71-1.94 16.77-5.65.31 5.65 1.15 11.08 3.74 16.18 1.33 2.45 3.27 4.9 5.86 6.07 3.95 1.56 8.62.1 11.99-2.2 5.11-3.57 9.22-8.97 9.8-15.33.52-4.96-.89-9.23-2.37-13.85 3.7.18 7.39.21 11.1-.02-.16 4.66-.31 9.42.24 14.06.5 3.94 2.01 7.33 3.42 10.99-12.53 6.39-23.2 17.43-33.35 27.03-1.95 1.63-2.31 4.12-.29 5.88 3.13 2.65 6.98 4.53 10.62 6.36 11.69 5.99 25.54 7.83 38.46 5.82 5.46-.47 10.3-1.7 15.34-3.8-1.49 12.72.48 24.89 2.93 37.32.82 1.72 2.46 2.26 4.24 1.69 4.76-1.41 9.23-3.99 13.5-6.49 8.53-5.23 16.43-11.17 20.94-20.37 7.32 2.78 13.7 3.91 21.56 3.48 3.85 4.87 8.54 8.89 14.47 10.96 3.64 1.49 7.19 1.23 11.02 1.12 10.69-.41 21.19-3.38 30.57-8.5 2.43-1.49 5.16.23 7.37 1.33 6.24 3.19 11.74 7.45 16.95 12.09 2.47 2.18 4.5 5.05 7.23 6.89 1.8.45 2.7-.49 4.07-1.38 6.79 9.22 10.8 20.31 10.86 31.81-18.39-9.76-39.31-15.35-60.11-15.96-2.29-.14-3.97 2.28-2.83 4.36 3.13 2.61 6.97 4.39 10.3 6.75 25.28 17.01 44.6 42.82 54.26 71.68 5.06 15.65 7.51 32.36 5.69 48.76-1.55 14.76-6.61 29.04-15.5 40.99-.27-4.78-.2-9.87-1.2-14.51-1.22-5.93-3.69-12.26-6.58-17.57-1.13-2.18-3.84-1.58-5.4-.23-.77 1.31-1.22 2.87-1.67 4.31-3.52 12.84-10.32 24.84-19.47 34.51-10.87 11.56-25.06 19.6-40.4 23.52-17.68 4.6-36.96 3.56-54.36-1.78-1.88-.61-3.71-.81-5.61-.15-2.18 1.35-3.8 3.78-5.08 5.95-2.69 4.92-4.69 10.17-5.37 15.77-5.27-3.53-9.76-7.37-14.08-12.02 6.46-6.16 13.03-12.53 18.81-19.33 9.23-10.46 17.02-21.94 24.29-33.82 7.62.89 14.46 2.78 22.27 1.72 18.23-1.79 35.18-11.61 46.24-26.14 9.91-12.77 15.32-29.09 14.87-45.25-.52-12.39-4.15-24.52-11.38-34.67-9.32-13.26-24.31-22.3-40.54-23.65-6.47-1.14-12.77-.38-19.15.87-.03-1.91.78-4.42-.64-5.94-1.54-.89-3.77-.44-4.03 1.55-2.42 9.55-7.21 18.61-12.17 27.08-6.95 11.98-16.82 22.53-27.22 31.59 2.72-12.97 5.51-25.44 5.21-38.82.56-14.7-1.1-29.4-4.65-43.67-1.21-2.01-3.58-1.27-5.55-1.44-4.99.16-9.91-.46-14.48-2.54-8.1-3.66-15.61-8.94-20.01-16.86-4.01-7.23-4.39-16.56-4.28-24.64-.8-2.23-4.31-1.83-5.08.22-2.64 4.65-5.34 8.87-7.11 13.92-2.38 6.33-3.28 13.12-3.14 19.86-5.7.49-11.15 1.44-16.88.55-10.92-.83-21.75-4.15-30.37-11.08-8.66-6.79-14.06-16.8-16.14-27.52-2.05-12.38-.57-25 3.67-36.77.56-2.03 1.92-4.71.34-6.56-2.03-1.73-4.95-.19-6.4 1.61-6.7 7.9-11.98 17.16-14.96 27.1-2.58 8.1-3.46 16.38-4 24.82-.28 6.05.88 11.62 1.77 17.55-5.64-4.13-10.23-9.77-13.71-15.79-.94-1.56-1.99-3.01-4.06-2.46-2.1.24-2.6 2.98-3.02 4.67-1.05 6.83-.73 13.79 1.49 20.36-21.55 4.2-43.64 7.12-65.63 6.89-8.57-.05-17.55.12-26.02-1.11-15.32-1.67-31.78-5.17-45.29-12.85-8.93-5.12-16.53-12.32-19.54-22.44-1.69-5.4-.87-10.43-.93-15.92-1.21-2.08-3.44-2.39-5.38-1.09-7.21 5.05-11.47 12.15-15.03 20.03-4.74 11.2-7.55 23.95-6.36 36.13-4.13-1.39-8.26-2.4-12.3-4.07-11.48-4.64-21.78-11.8-29.43-21.61-7.94-10.16-12.35-22.62-13.08-35.47-.8-13.27 2.44-27.06 7.89-39.14 1.59 4.98 2.58 9.65 6.03 13.78 4.51 5.75 11.67 9.05 18.94 6.91 9.19-3.18 14.77-12.9 14.7-22.37.19-8.12-3.77-14.78-9.07-20.58 10.44-2.12 20.7-7.42 27.68-15.58 3.55-4.48 6.83-9.91 6.09-15.86-.32-3.22-2.7-5.05-4.88-7.11 9.8-5.13 20.06-9.31 30.79-12.05 19.04-4.96 38.83-6.12 57.99-1.17 1.9.3 4.03 1.47 5.38-.5 1.32-1.96 1.38-4.86 1.5-7.15.14-9-4.1-17.22-9.8-23.94-9.29-10.9-22.84-18.53-37.06-20.45 3.48-3.08 7.28-5.66 11.68-7.22 14.38-5.39 31.62-2.6 44.36 5.71Z" fill="rgba(86, 35, 6, 1)"/><path d="M367.37 205.66c6.05 4.53 12.35 11 14.17 18.56 1.68 6.55 1.74 14.1-1.17 20.32-6.65 2.87-13.66 4.84-20.14 8.21 1.74-7.52 1.47-15.27-.12-22.78-.52-2.3-1.47-4.31-4-4.79-2.16.82-4.03 2.58-5.93 3.86.36-4.22.93-8.3 2.56-12.23 1.75-4.38 3.93-9.41 7.48-12.64 2.14-2.07 5.18.32 7.15 1.49Z" fill="#C0ACEB"/><path d="M703.011 206.89c3.07-.49 4.84 1.72 5.75 4.33 3.69 10.86 1.07 21.3-2.92 31.61-.81 2.45-2.45 5.42.06 7.47 3.87 1.24 4.58-3.6 6.74-5.68 4.95-5.49 12.32-9.48 19.54-11 7.33-1.54 14.96 2.15 18.78 8.48 2.3 3.84.73 8.77-1.7 12.14-4.55 6.35-12.02 9.7-19.24 12.02-1.72.52-3.99 1.53-3.49 3.74.22 3.13 4.26 2.84 6.49 3.28 11.16 1.32 22.45 7.75 26.09 18.93 3.3 9.67-4.22 19.79-13.27 22.76-7.96 3.1-16.32 1.99-23.71-2.01-2.35-1.17-4.4-3.06-7.19-2.2-2.56 1.86-.66 5.63-.45 8.25.98 8.21.96 17.01-2.95 24.52-2.74 6.08-8.75 11.19-15.52 11.78-6.12.43-10.98-3.86-13.09-9.31-3.4-8.58-1.64-16.9 1.39-25.25-.86-1.63-1.77-2.41-3.34-3.38-3.39 2.06-4.81 5.37-7.49 8.12-3.4 3.58-6.82 6.89-11.56 8.61-5.39-2.17-8.19-8.14-9.58-13.43-1.2-5.48-1.46-11.66.02-17.11 2.56-1.48 5.03-2.93 7.08-5.11 4.83-4.92 7-12.3 4.85-18.97-1.33-5.31-6.06-9.06-11.28-10.12-4.39-.92-9.12-.01-13.33 1.32 1.11-6.01-.41-11.79 1.13-17.7.64-2.54 1.2-5.06 3.42-6.73 3.49-1.79 7.77-.26 10.94 1.56 7.97 4.57 15.6 9.74 23.39 14.6 1.8 1.35 4.87 1.36 6.09-.75 1.02-3.8-3.02-7.8-3.37-11.66-2.36-10.82-1.01-22.17 5.02-31.59 3.57-5.82 9.89-10.49 16.7-11.52Z" fill="#fff"/><path d="M348.379 211.76c-2.86 6.77-4.38 13.56-3.62 20.94-7.32 4.63-14.43 9.44-20.83 15.31-2.72-1.82-4.94-2.75-8.19-3.31-1.7-3.93-2.96-8-4.13-12.12 3.92-7.52 7.27-14.48 14.29-19.71 6.5-4.39 15.48-4.18 22.48-1.11Z" fill="#C0ACEB"/><path d="M625.02 214.35c8.99.4 17.309 1.15 24.529 7.08 7.52 5.79 10.931 14.27 12.071 23.48-5.83-3.52-11.9-6.77-18.85-4.19-5.72 2.47-6.99 8.98-7.83 14.49-1.47-.71-2.94-1.4-4.43-2.07-1.3-2.98-2.43-5.99-3.11-9.17-2.38-9.83-1.02-19.53-2.38-29.62Z" fill="#A0CC59"/><path d="M401.991 219.57c-1.07 7.66-3.08 15.17-8.52 20.94-1.6 1.71-4.44 1.91-6.6 2.48 1.12-5.36 1.75-10.61.86-16.07 4.2-3.51 8.92-6.06 14.26-7.35Z" fill="#C0ACEB"/><path d="M802.74 221.81c1.18 7.55 1 15.16-1.67 22.39-7.73-3.94-15.38-5.74-24.07-5.4-6.89-.12-13.06 2.02-19.48 4.17-.32-1.34-1.56-3.2-1.19-4.55 2.82-2.65 6.54-4.49 10.01-6.13 11.34-5.04 24.39-7.45 36.4-10.48ZM677.682 222.77c-3.96 10.29-3.33 20.8-1.08 31.39-3.08-1.84-6.09-3.78-9.1-5.72.01-4.97-1.12-9.63-1.99-14.47 2.17-4.78 8.01-8.21 12.17-11.2Z" fill="#A0CC59"/><path d="M304.979 226.69c.76 6.68 3.06 12.59 5.13 18.89-7.75 4.09-12.6 11.26-14.84 19.6-2.22-4.36-3.66-9.81-2.62-14.67 1.37-8.9 5.92-17.51 12.33-23.82Z" fill="#C0ACEB"/><path d="M354.98 232.99c.33 4.77 1.13 9.24.37 14.02-.4 4.22-2.04 7.9-3.65 11.76-3.7-.57-7.13-1.21-10.9-.7-4.44.53-8.43 2.17-12.39 4.17.24-3.54-.16-6.25-1.48-9.53 7.06-7.08 16.56-12.49 24.94-17.87 1.03-.63 2.06-1.25 3.11-1.85Z" fill="#A0CC59"/><path d="M795.85 248.17c6.35 2.86 11.84 7.82 14.51 14.34 2.44 5.51 1.84 12.1.16 17.75-3.43-7.68-7.39-15.36-14.45-20.36-4.47-3.13-9.61-4.01-14.97-4.07-6.86-5.29-16.06-5.89-24.28-4.14.79-1.84 1.26-3.04 3.23-3.75 11.44-4.82 24.49-5.15 35.8.23Z" fill="#E67E5E"/><path d="M319.061 251.91c2.17 1.72 3.26 4.45 3.63 7.12.2 3.01-2.2 6.08-2.48 9.01.11 1.97 2.58 3.89 4.5 2.7 7.07-3.48 13.97-8.24 22.32-6.85 3.16.61 8.04 1.58 9.17 5.1.22 4.15-2.8 8.73-5.44 11.77-5.72 6.26-13.74 10.57-21.95 12.49-2.7.76-6.75.11-8.43 2.64-.58 2.02-.11 3.06 1.12 4.64 2.87 3.64 6.03 6.61 7.96 10.95 2.87 5.72 2.5 12.75-.68 18.27-2.24 3.9-6.08 7.3-10.78 7.49-4.71-.22-8.75-3.2-11.14-7.14-3.12-5.33-3.75-11.08-3.64-17.14.1-2.79-3.33-4.03-5.06-1.83-3.5 4.58-6.44 10.4-12.16 12.83-2.97 1.05-5.39-.73-6.49-3.43-2.36-4.89-.86-9.49.63-14.37 1.18-3.63 3.54-6.28 5.65-9.36 1.01-1.4.36-3.59-1.24-4.3-3.55-1.97-7.06-3.35-8.6-7.5-1.02-5.4 3.6-11.85 9-12.8 3.61-.51 8.76 1.64 8.96 5.81.53 1.85.33 4.82 2.56 5.53 1.62.81 3.66-.83 3.74-2.52-.05-3.05-.62-5.96-.31-9.04.93-7.55 4.09-15.22 10.48-19.72 2.42-1.79 6.2-2.21 8.68-.35Z" fill="#fff"/><path d="M774.631 257.99c-7.51 4.37-11.55 13.44-13.15 21.64-.48.55-.97 1.09-1.45 1.64-5.69-6.25-11.38-10.04-19.5-12.54l.25-.23c5.06-2.85 8.79-5.68 12.83-9.86 6.67-2.9 14.16-3.26 21.02-.65Z" fill="#E67E5E"/><path d="M269.51 256.26c5.71.56 11.44.97 17.15 1.59.72 3.11 1.58 6.15 2.85 9.07-5.49-.85-8.86.45-13.41 3.28-2.54-3.34-4.25-6.74-5.55-10.72-.36-1.07-.7-2.15-1.04-3.22Z" fill="#C0ACEB"/><path d="M624.459 259.5c3.17-1.8 7.53-.59 8.79 2.99 2.12 6.77-.82 13.55-4.74 19-1.41 2.14-3.57 3.57-2.57 6.47 1.34 1.08 2.18 1.59 3.91.84 3.56-2.76 5.48-7.88 8.04-10.92 2.93-2.86 8.22-3.43 12.11-3.3 4.77-.07 8.98 3.52 9.21 8.38.98 6.97-3.7 13.01-10.02 15.37-6.31 2.36-12.84 1-19.24.36-2.38-.27-3.87 2.01-2.57 4.06 2.65 4.65 4.72 9.82 4.42 15.27-.77 6.11-5.76 11.86-11.75 13.36-2.88.58-4.3-1.82-5.49-3.97-2.43-5.12-3.2-10.78-2.85-16.41-.04-1.94.49-4.48-.5-6.21-1.57-.77-3.61-.94-4.77.6-3.99 4.51-9.98 9.87-16.5 8.72-4.08-.96-4.94-6.27-3.42-9.62 2.84-5.82 8.84-9.73 14.7-12.06 1.57-.69 3.27-1.37 2.99-3.44.11-1.81-1.84-2.45-3.22-2.91-4.01-1.15-7.75-2.26-10.81-5.28-5.45-4.9-5.1-14.57.31-19.34 2.99-2.5 7.37-1.08 10.41.59 4.93 2.6 7.53 7.15 10.41 11.73 2.23 3.43.86 7.24 3.32 10.56 1.2 1.86 4.59 1.1 4.61-1.27-1.07-4.08-2.05-7.86-.89-12.09 1.1-3.94 2.77-8.89 6.11-11.48Z" fill="#fff"/><path d="M699.19 262.17c7.59-2.45 13.93 3.96 15.69 10.82 2.06 6.46 1.04 13.09-1.69 19.17-2.29 4.69-6.64 9.13-12.18 9.18-4.89.19-8.89-3.15-11.05-7.31-4.11-7.83-3.19-18.17 1.45-25.59 1.72-2.99 4.55-5.12 7.78-6.27Z" fill="#000"/><path d="M795.249 266.74c4.87 4.77 8.33 11.06 10.49 17.48 1.84 5.68 3.36 13 1.36 18.77-3.6-3.1-6.96-5.36-11.6-6.66-1.04-9.27-4.63-18.83-12.91-23.94-4.09-2.47-8.26-1.86-12.62-.58 2.11-3.4 3.69-6.62 7.45-8.48 6.02-3.22 13.11-1.03 17.83 3.41Z" fill="#E67E5E"/><path d="M699.45 268.52c1.47-.86 2.91-1.42 4.59-.7 3.05.93 4.61 4.54 5.41 7.36 1.26 5.92.5 12.94-3.65 17.63-1.69 1.93-4.23 3.38-6.8 2.31-2.9-1.01-4.59-4.85-5.28-7.62-1.67-6.36.22-14.93 5.73-18.98Z" fill="#F0DF83"/><path d="m740.781 268.5-.25.23-.09-.04.34-.19Z" fill="#B7FF1D"/><path d="M778.9 277.08c4.18 2.01 7.15 6.52 8.85 10.71-5.31 1.55-9.69 4.97-12.08 10-2.9 6.35-4.75 13.22-5.31 20.19-.48 9.22 3.89 17.9 11.72 22.83-1.82 1.42-3.71 2.51-4.85 4.63-5.97 3.83-14.64 1.46-19.46-3.22-6.67-6.73-6.98-17.16-2.75-25.26 4.66-4.14 8.54-8.57 10.08-14.79 1.59-5.47.15-10.36-1.65-15.51 2.65-3.68 5.8-7.21 9.8-9.46 1.75-1.11 3.83-1.03 5.65-.12Z" fill="#E67E5E"/><path d="M309.349 282.31c2.66-.85 4.49.92 3.48 3.57-1.65 2.31-3.93 4.08-5.46 6.52-1.59 2.29-2.04 5.17-3.58 7.44-1.51.12-2.59.28-3.53-1.13-1.11-1.96.25-4.68 1.1-6.52 1.9-3.68 4.53-7.51 7.99-9.88Z" fill="#000"/><path d="M815.708 283.7c11.15 9.1 15.93 24.29 13.95 38.3-.44 3.76-2.1 6.84-3.39 10.34-3.28 7.44-9.69 13.27-17.94 14.4 4.45-8.75 6.26-19.07 4.72-28.78-.43-2.94-1.75-5.8-1.95-8.75.58-3.14 1.82-5.96 2.1-9.19.55-4.07.12-8.08-.62-12.09 1.01-1.43 2.01-2.87 3.13-4.23Z" fill="#E67E5E"/><path d="M262 288.75c6.83-.25 11.63 3.74 16.81 7.47-3.96 5.76-6.37 12.79-6.35 19.79.3 5.42 2.83 11.2 8.08 13.46 2.43 1.16 5.15.57 7.69.17-1.98 5.25-3.03 10.72-3.66 16.28-3.63-.29-7.01-.63-10.61.21-9.6 2.65-18.22 8.32-22.41 17.65-4.31 1.11-10.27 2.22-13.07-2.26-3.31-7.43.67-17.4 6.35-22.7 4.96-5.23 12.35-6.05 19.16-6.57 2.13-.31 5.67.71 6.13-2.27.19-3.19-4.11-5.85-5.77-8.36-5.21-6.94-10.27-15.74-10.44-24.61 0-2.07-.09-5.02 1.42-6.64 1.35-1.96 4.58-1.47 6.67-1.62Z" fill="#fff"/><path d="M789.109 292.89c1.54 7.14 2.27 14.12 0 21.22-1.7-2.94-2.08-5.78-2.3-9.11-.17-3.47-1.38-6.55-2.7-9.71 1.65-.83 3.32-1.62 5-2.4ZM780.711 300.06c.84 5.61 1.75 11.18-.11 16.71-.8 2.36-2.56 3.66-4.45 5.11-.39-7.64 1.58-14.86 4.56-21.82ZM795.972 302.63c4.04 1.62 7.37 4.34 9.09 8.41 4.22 10.1 3.4 22.02-1.12 31.86-2.97 6.38-8.46 10.56-14.86 13.14-.76-3.7-1.76-6.94-3.98-10.04 5.02-6.67 6.55-14.56 6.25-22.76 3.17-6.48 4.83-13.37 4.62-20.61ZM720.439 318.84c3.77 1.63 7.58 2.82 11.62 3.52.83 9.08 1.75 18.1 4.99 26.67 1.28 3.38 3.07 6.44 4.8 9.6-4.05 7.28-3.91 15.62-1.25 23.34-6.84-.18-14.21-1.79-20.03-5.52-6.87-4.56-11.08-11.59-12.19-19.74 11.03-8.85 14.2-24.5 12.06-37.87ZM747.07 320.72l.23-.06c-1.61 7.33-1.22 14.68 2.82 21.17 5.87 10.27 20.67 14.83 30.83 8.22 1.45 2.93 2.72 5.59 1.92 8.97-1.71 6.81-9.22 10.61-15.88 9.87-9.09-.86-16.32-7.47-21.12-14.8-6.14-9.87-7.15-20.21-8.55-31.43 3.34-.35 6.55-.92 9.75-1.94ZM785.51 320.8c.57 4.97.53 9.69-1.09 14.48-3.21-2.24-4.94-4.42-6.58-7.96 3.1-1.61 5.34-4 7.67-6.52Z" fill="#E67E5E"/><path d="M675.47 331.81c-1.18 9.33 1.42 19.09 8.46 25.61-1.01 2.53-1.71 5.2-2.82 7.69-6.17 3.62-14.04 4.87-21.11 4.96-6.62.09-13.07.31-19.48-1.49-6.64-1.8-12.99-4.89-18.84-8.48 6.65-6.54 13.48-12.85 20.81-18.62 3.27-2.56 6.81-4.67 10.53-6.49 2.53 2.51 5.32 4.43 8.99 4.74 4.44-.5 7.74-2.87 11.01-5.69.82-.73 1.64-1.48 2.45-2.23ZM832.341 334.06c4.03.66 7.82 3.07 10.82 5.76 5.07 4.74 8.79 10.87 10.56 17.6-3.86-1.24-7.66-2.5-11.7-2.98-4.02-.67-8.01-.14-12.01-.55-2.18-2.5-4.07-5.34-5.89-8.11 3.05-3.82 5.77-7.47 8.22-11.72ZM819.648 348.9c4.36 6 9.06 12.21 10.62 19.61 2.54 10.85 4.18 23.62.75 34.42-7.11-7.23-15.13-13-24.12-17.65 3.58-3.49 6.28-7.67 7.86-12.43 2.69-7.4 2.11-14.59 1.91-22.28.98-.59 1.98-1.13 2.98-1.67ZM283.839 351.22c-.11 5.56-.35 11.32.78 16.79.24 1.59.7 3.32.46 4.93-2.26 3.65-5.49 7.05-9.64 8.49-7.57 2.65-15.57 3.79-23.58 3.43 1.94-9.66 2.85-18.58 9.99-26.02 5.88-5.26 13.9-9.23 21.99-7.62Z" fill="#A0CC59"/><path d="M811.392 352.08c.21 7.5.46 14.43-2.91 21.38-3.18 7.22-10.21 11.83-17.24 14.81-9.71 4.07-20.71 6.08-31.2 4.92-7.49-2.77-13.89-9.37-15.32-17.39-1.12-4.23-.19-8.16 1.04-12.22 3.2 3.14 6.36 6.11 10.44 8.08 6.77 3.4 14.52 4.52 21.55 1.14 5.12-2.17 8.53-6.14 10.67-11.2 5.27-1.12 9.81-3.84 13.84-7.34 2.16-2.43 6.09-1.61 9.13-2.18Z" fill="#E67E5E"/><path d="M688.521 360.21c5.32 1.17 9.46 1.3 14.66-.62 2.02 8.88 6.28 15.4 13.63 20.76-1.66 4.03-4.04 7.3-7.28 10.2-6.28 5.63-13.65 10.12-21.36 13.51-1.32-8.19-2.95-16.75-2.88-25.06.6-6.62.64-12.63 3.23-18.79Z" fill="#A0CC59"/><path d="M287.421 379.94c.7 1.91 1.42 3.82 2.18 5.7-2.35 4.34-5.61 8.45-9.75 11.19-2.07 1.34-5.04 2.17-7.13.44-2.54-1.96-3.21-5.03-4.26-7.9 4.19-.9 8.26-1.89 12.11-3.85 2.65-1.35 4.72-3.55 6.85-5.58Z" fill="#fff"/><path d="M302.049 404.72c3.05 2.91 6.12 5.73 9.43 8.34-4.67 18.51-7.48 37.83-7.23 56.94-.32 53.49 19.63 106.33 54.68 146.67-7.91 1.56-15.89.3-23.44-2.25-10.86-3.6-20.48-10.35-28.39-18.53-13.18-13.4-21.97-31.22-24.31-49.89-.65-6.37-.3-12.7.4-19.05.24-2.48-2.16-3.69-4.31-2.98-3.9 1.47-7.28 4.8-9.78 8.07-5.61 7.08-9.51 15.27-11.86 23.98-7.89-19.03-10.59-40.55-9.47-61.03 1.59-23.2 8.41-46.96 22.42-65.81 8.12-11.04 18.8-19.94 31.86-24.46Z" fill="rgba(86, 35, 6, 1)"/></g></g></svg>